<svg width="32" height="32" viewBox="0 0 32 32" fill="none" xmlns="http://www.w3.org/2000/svg">
<path fill-rule="evenodd" clip-rule="evenodd" d="M7.00003 4H11.12C11.918 3.99999 12.6831 4.31789 13.2461 4.88339C13.8091 5.44888 14.1236 6.21538 14.12 7.01333V11.12C14.12 12.7769 12.7769 14.12 11.12 14.12H7.00003C5.34318 14.12 4.00003 12.7769 4.00003 11.12V7.01333C3.99648 6.21538 4.31099 5.44888 4.87398 4.88339C5.43698 4.31789 6.20206 3.99999 7.00003 4ZM11.12 12.1067C11.6693 12.0995 12.1128 11.6559 12.12 11.1067V7.01333C12.12 6.46105 11.6723 6.01333 11.12 6.01333H7.00003C6.44774 6.01333 6.00003 6.46105 6.00003 7.01333V11.1067C6.00721 11.6559 6.45075 12.0995 7.00003 12.1067H11.12Z" fill="white"/>
<path fill-rule="evenodd" clip-rule="evenodd" d="M20.8801 4H25.0001C25.798 3.99999 26.5631 4.31789 27.1261 4.88339C27.6891 5.44888 28.0036 6.21538 28.0001 7.01333V11.12C28.0001 12.7769 26.6569 14.12 25.0001 14.12H20.8801C19.2232 14.12 17.8801 12.7769 17.8801 11.12V7C17.8801 5.34315 19.2232 4 20.8801 4ZM25.0001 12.1067C25.5493 12.0995 25.9929 11.6559 26.0001 11.1067V7.01333C26.0001 6.46105 25.5523 6.01333 25.0001 6.01333H20.8801C20.3278 6.01333 19.8801 6.46105 19.8801 7.01333V11.1067C19.8872 11.6559 20.3308 12.0995 20.8801 12.1067H25.0001Z" fill="white"/>
<path fill-rule="evenodd" clip-rule="evenodd" d="M7.00003 17.88H11.12C12.7769 17.88 14.12 19.2231 14.12 20.88V25C14.12 26.6569 12.7769 28 11.12 28H7.00003C6.20206 28 5.43698 27.6821 4.87398 27.1166C4.31099 26.5511 3.99648 25.7846 4.00003 24.9867V20.88C4.00003 19.2231 5.34318 17.88 7.00003 17.88ZM11.12 25.9867C11.6723 25.9867 12.12 25.539 12.12 24.9867V20.88C12.1128 20.3307 11.6693 19.8872 11.12 19.88H7.00003C6.45075 19.8872 6.00721 20.3307 6.00003 20.88V24.9867C6.00003 25.539 6.44774 25.9867 7.00003 25.9867H11.12Z" fill="white"/>
<path fill-rule="evenodd" clip-rule="evenodd" d="M20.88 17.88H25C26.6569 17.88 28 19.2231 28 20.88V24.9867C28.0036 25.7846 27.6891 26.5511 27.1261 27.1166C26.5631 27.6821 25.798 28 25 28H20.88C20.0821 28 19.317 27.6821 18.754 27.1166C18.191 26.5511 17.8765 25.7846 17.88 24.9867V20.88C17.88 19.2231 19.2232 17.88 20.88 17.88ZM25 25.9867C25.5523 25.9867 26 25.539 26 24.9867V20.88C25.9928 20.3307 25.5493 19.8872 25 19.88H20.88C20.3307 19.8872 19.8872 20.3307 19.88 20.88V24.9867C19.88 25.539 20.3277 25.9867 20.88 25.9867H25Z" fill="white"/>
</svg>
