<svg width="32" height="32" viewBox="0 0 32 32" fill="none" xmlns="http://www.w3.org/2000/svg">
<path d="M16 24.003V16.003M19 24.003V22.503C19 20.6905 20.9713 18.9761 22.25 17.753C24.0525 16.0298 25 13.7148 25 11.003C25 6.00296 21.0169 2.00296 16 2.00296C14.8172 1.99967 13.6454 2.2302 12.552 2.68133C11.4586 3.13245 10.4651 3.79526 9.62872 4.63165C8.79233 5.46803 8.12952 6.46149 7.6784 7.55491C7.22728 8.64833 6.99674 9.82014 7.00003 11.003C7.00003 13.618 7.98816 16.0898 9.75003 17.753C11.0219 18.9536 13 20.6717 13 22.503V24.003H19ZM14 30.003H18H14ZM13 27.003H19H13Z" stroke="white" stroke-width="1.5" stroke-linecap="round" stroke-linejoin="round"/>
<path d="M18.375 15.0017C18.375 15.0017 17.0306 16.0017 16 16.0017C14.9694 16.0017 13.625 15.0017 13.625 15.0017" stroke="white" stroke-width="1.5" stroke-linecap="round" stroke-linejoin="round"/>
</svg>
