<svg width="32" height="32" viewBox="0 0 32 32" fill="none" xmlns="http://www.w3.org/2000/svg">
<path fill-rule="evenodd" clip-rule="evenodd" d="M20.2912 10.5195C20.1695 10.5051 20.0466 10.5051 19.9249 10.5195L13.3028 12.2336C12.7756 12.3643 12.3639 12.7759 12.2332 13.3031L10.563 19.9839C10.4529 20.4286 10.5571 20.8993 10.8447 21.2559C11.1323 21.6125 11.5702 21.8141 12.0281 21.8006C12.1498 21.8149 12.2727 21.8149 12.3944 21.8006L19.0898 20.0865C19.617 19.9558 20.0287 19.5442 20.1594 19.017L21.8296 12.3362C21.9397 11.8915 21.8355 11.4208 21.5479 11.0642C21.2603 10.7076 20.8224 10.506 20.3645 10.5195H20.2912ZM18.6796 13.5815L17.6541 17.713L13.5225 18.7386L14.5481 14.607L18.6796 13.5815Z" fill="white"/>
<path fill-rule="evenodd" clip-rule="evenodd" d="M19.2657 1.33337H13.0537C6.58054 1.33337 1.33301 6.5809 1.33301 13.0541V19.266C1.33301 25.7392 6.58054 30.9867 13.0537 30.9867H19.2657C25.7388 30.9867 30.9863 25.7392 30.9863 19.266V13.0541C30.9863 6.5809 25.7388 1.33337 19.2657 1.33337ZM13.0537 28.7891C7.7976 28.781 3.5387 24.5221 3.53064 19.266V13.0541C3.5387 7.79797 7.7976 3.53907 13.0537 3.531H19.2657C24.5218 3.53907 28.7806 7.79797 28.7887 13.0541V19.266C28.7806 24.5221 24.5218 28.781 19.2657 28.7891H13.0537Z" fill="white"/>
</svg>
